<?xml version="1.0" encoding="utf-8"?>
<!-- Generator: Adobe Illustrator 24.0.2, SVG Export Plug-In . SVG Version: 6.00 Build 0)  -->
<svg version="1.1" xmlns="http://www.w3.org/2000/svg" xmlns:xlink="http://www.w3.org/1999/xlink" x="0px" y="0px"
	 viewBox="0 0 100 100" style="enable-background:new 0 0 100 100;" xml:space="preserve">
<style type="text/css">
	.st0{fill:#FFFFFF;}
	.st1{fill:#1976d2;}
	.st2{fill:none;stroke:#FFFFFF;stroke-width:2;stroke-miterlimit:10;}
	.st3{fill:none;stroke:#FFFFFF;stroke-width:2;stroke-linecap:round;stroke-linejoin:round;stroke-miterlimit:10;}
</style>
<g id="BACKGROUND">
</g>
<g id="OBJECTS">
	<g>
		<path class="st3" d="M93.6,51.2c4,0,5.9-4.9,3-7.6L77.4,25.9L53,3.3c-1.7-1.5-4.3-1.5-5.9,0L22.6,25.9L3.4,43.7
			c-2.9,2.7-1,7.6,3,7.6h8.1c2.4,0,4.4,2,4.4,4.4v38c0,2.4,2,4.4,4.4,4.4h53.5c2.4,0,4.4-2,4.4-4.4v-38c0-2.4,2-4.4,4.4-4.4H93.6z"
			/>
		<circle class="st3" cx="50" cy="66.3" r="16.3"/>
	</g>
</g>
<g id="DESIGNED_BY_FREEPIK">
</g>
</svg>
