<?xml version="1.0" encoding="utf-8"?>
<!-- Generator: Adobe Illustrator 24.0.2, SVG Export Plug-In . SVG Version: 6.00 Build 0)  -->
<svg version="1.1" xmlns="http://www.w3.org/2000/svg" xmlns:xlink="http://www.w3.org/1999/xlink" x="0px" y="0px"
	 viewBox="0 0 100 100" style="enable-background:new 0 0 100 100;" xml:space="preserve">
<style type="text/css">
	.st0{fill:#FFFFFF;}
	.st1{fill:#1976d2;}
	.st2{fill:none;stroke:#FFFFFF;stroke-width:2;stroke-miterlimit:10;}
	.st3{fill:none;stroke:#FFFFFF;stroke-width:2;stroke-linecap:round;stroke-linejoin:round;stroke-miterlimit:10;}
</style>
<g id="BACKGROUND">
</g>
<g id="OBJECTS">
	<path class="st3" d="M6.1,29.3l0,45.6c0,1.7,1.2,3.2,2.8,3.7l43.2,10.9L92,72.4c1.4-0.6,2.4-2,2.4-3.6V21.5"/>
	<path class="st3" d="M68,33l-15.5,6.5c-0.3,0.1-0.5,0.1-0.8,0.1L7.2,30.3C5.9,30,5.7,28.1,7,27.6l42.1-17.1
		c0.3-0.1,0.5-0.1,0.8-0.1l43.3,9.6c1.3,0.3,1.5,2.1,0.2,2.6l-12,4.8"/>
	<path class="st3" d="M20.2,22.4l47.2,10.2c0.6,0.1,1.1,0.7,1.1,1.3v24.6c0,1,1,1.7,1.9,1.3l9.9-4.3c0.5-0.2,0.8-0.7,0.8-1.3
		l0.2-25.6c0-0.6-0.4-1.2-1.1-1.4L34.3,16.6"/>
	<line class="st3" x1="51.7" y1="39.6" x2="52.1" y2="89.5"/>
</g>
<g id="DESIGNED_BY_FREEPIK">
</g>
</svg>
