<?xml version="1.0" encoding="utf-8"?>
<!-- Generator: Adobe Illustrator 24.0.2, SVG Export Plug-In . SVG Version: 6.00 Build 0)  -->
<svg version="1.1" xmlns="http://www.w3.org/2000/svg" xmlns:xlink="http://www.w3.org/1999/xlink" x="0px" y="0px"
	 viewBox="0 0 100 100" style="enable-background:new 0 0 100 100;" xml:space="preserve">
<style type="text/css">
	.st0{fill:#FFFFFF;}
	.st1{fill:#1976d2;}
	.st2{fill:none;stroke:#FFFFFF;stroke-width:2;stroke-miterlimit:10;}
	.st3{fill:none;stroke:#FFFFFF;stroke-width:2;stroke-linecap:round;stroke-linejoin:round;stroke-miterlimit:10;}
</style>
<g id="BACKGROUND">
</g>
<g id="OBJECTS">
	<path class="st3" d="M85.8,59.7c-3.2-0.4-6.3-1.1-9.3-1.9c-3.7-1.1-7.8-0.2-10.6,2.6L60,66.2C49,60.1,40,51.1,33.9,40l5.8-5.8
		c2.8-2.8,3.7-6.9,2.6-10.6c-0.9-3-1.5-6.1-1.9-9.3C39.7,8.9,35.2,5,29.8,5H15.5c-3,0-5.8,1.3-7.8,3.5C6,10.4,4.9,13,4.9,15.6
		c0,0.2,0,0.6,0,0.9c0.9,10.2,3.7,20.1,8,29.2c4.3,8.9,9.9,17.1,17.1,24.2c7.1,7.1,15.1,12.8,24.2,17.1c9.3,4.3,19,7.1,29.2,8
		c3,0.2,5.8-0.6,8.2-2.8c2.2-1.9,3.5-4.8,3.5-7.8V70.1C95.1,64.9,91.2,60.4,85.8,59.7z"/>
</g>
<g id="DESIGNED_BY_FREEPIK">
</g>
</svg>
