<?xml version="1.0" encoding="utf-8"?>
<!-- Generator: Adobe Illustrator 24.0.2, SVG Export Plug-In . SVG Version: 6.00 Build 0)  -->
<svg version="1.1" xmlns="http://www.w3.org/2000/svg" xmlns:xlink="http://www.w3.org/1999/xlink" x="0px" y="0px"
	 viewBox="0 0 100 100" style="enable-background:new 0 0 100 100;" xml:space="preserve">
<style type="text/css">
	.st0{fill:#FFFFFF;}
	.st1{fill:#1976d2;}
	.st2{fill:none;stroke:#FFFFFF;stroke-width:2;stroke-miterlimit:10;}
	.st3{fill:none;stroke:#FFFFFF;stroke-width:2;stroke-linecap:round;stroke-linejoin:round;stroke-miterlimit:10;}
</style>
<g id="BACKGROUND">
</g>
<g id="OBJECTS">
	<path class="st2" d="M78.9,13.7c-7.7-7.7-18-12-28.9-12c-10.9,0-21.2,4.3-28.9,12c-7.7,7.7-12,18-12,28.9c0,10.9,4.3,21.2,12,28.9
		l25.1,25.1c1,1,2.3,1.6,3.8,1.6c1.4,0,2.8-0.6,3.8-1.6l25.1-25.1C94.9,55.6,94.9,29.7,78.9,13.7z M50,59.6
		c-9.3,0-16.9-7.6-16.9-16.9c0-9.3,7.6-16.9,16.9-16.9c9.3,0,16.9,7.6,16.9,16.9C66.9,52,59.3,59.6,50,59.6z"/>
</g>
<g id="DESIGNED_BY_FREEPIK">
</g>
</svg>
